HIERARCHY
ROOT Hips
{
 OFFSET 0.000000 0.000000 0.000000
 CHANNELS 6 Xposition Yposition Zposition Yrotation Xrotation Zrotation
 JOINT Chest
 {
  OFFSET 0.000000 11.395451 -0.039534
  CHANNELS 3 Yrotation Xrotation Zrotation
  JOINT Chest2
  {
   OFFSET 0.000000 9.398669 0.071813
   CHANNELS 3 Yrotation Xrotation Zrotation
   JOINT Chest3
   {
    OFFSET 0.000000 8.489801 0.000000
    CHANNELS 3 Yrotation Xrotation Zrotation
    JOINT Chest4
    {
     OFFSET 0.000000 8.489801 0.000000
     CHANNELS 3 Yrotation Xrotation Zrotation
     JOINT Neck
     {
      OFFSET 0.000000 12.404889 0.000000
      CHANNELS 3 Yrotation Xrotation Zrotation
      JOINT Head
      {
       OFFSET 0.000000 8.903270 0.092239
       CHANNELS 3 Yrotation Xrotation Zrotation
       End Site
       {
        OFFSET 0.000000 17.592497 0.007158
       }
      }
     }
     JOINT RightCollar
     {
      OFFSET -3.196775 6.966722 0.000000
      CHANNELS 3 Yrotation Xrotation Zrotation
      JOINT RightShoulder
      {
       OFFSET -15.955896 0.000000 0.000000
       CHANNELS 3 Yrotation Xrotation Zrotation
       JOINT RightElbow
       {
        OFFSET -24.792472 0.000000 0.000000
        CHANNELS 3 Yrotation Xrotation Zrotation
        JOINT RightWrist
        {
         OFFSET -20.900115 0.000000 0.025002
         CHANNELS 3 Yrotation Xrotation Zrotation
         End Site
         {
          OFFSET -16.056692 0.000000 0.000000
         }
        }
       }
      }
     }
     JOINT LeftCollar
     {
      OFFSET 3.196775 6.966722 0.000000
      CHANNELS 3 Yrotation Xrotation Zrotation
      JOINT LeftShoulder
      {
       OFFSET 15.955896 0.000000 0.000000
       CHANNELS 3 Yrotation Xrotation Zrotation
       JOINT LeftElbow
       {
        OFFSET 24.792472 0.000000 0.000000
        CHANNELS 3 Yrotation Xrotation Zrotation
        JOINT LeftWrist
        {
         OFFSET 20.900115 0.000000 0.025002
         CHANNELS 3 Yrotation Xrotation Zrotation
         End Site
         {
          OFFSET 16.056692 0.000000 0.000000
         }
        }
       }
      }
     }
    }
   }
  }
 }
 JOINT RightHip
 {
  OFFSET -9.568995 0.193718 0.019767
  CHANNELS 3 Yrotation Xrotation Zrotation
  JOINT RightKnee
  {
   OFFSET 0.000000 -56.649296 0.015402
   CHANNELS 3 Yrotation Xrotation Zrotation
   JOINT RightAnkle
   {
    OFFSET 0.000000 -41.365147 0.021264
    CHANNELS 3 Yrotation Xrotation Zrotation
    JOINT RightToe
    {
     OFFSET 0.000000 -7.465940 17.672538
     CHANNELS 3 Yrotation Xrotation Zrotation
     End Site
     {
      OFFSET 0.000000 -1.736315 7.837145
     }
    }
   }
  }
 }
 JOINT LeftHip
 {
  OFFSET 9.568995 0.193718 0.019767
  CHANNELS 3 Yrotation Xrotation Zrotation
  JOINT LeftKnee
  {
   OFFSET 0.000000 -56.649296 0.015402
   CHANNELS 3 Yrotation Xrotation Zrotation
   JOINT LeftAnkle
   {
    OFFSET 0.000000 -41.365147 0.021264
    CHANNELS 3 Yrotation Xrotation Zrotation
    JOINT LeftToe
    {
     OFFSET 0.000000 -7.465940 17.672538
     CHANNELS 3 Yrotation Xrotation Zrotation
     End Site
     {
      OFFSET 0.000000 -1.736315 7.837145
     }
    }
   }
  }
 }
}
MOTION
Frames: 8
Frame Time: 0.016667
346.774991 106.736884 85.862924 -125.088959 -7.527579 0.350257 -0.245396 4.790369 1.527697 -0.124749 2.128238 0.680901 -0.124749 2.128238 0.680901 -0.095923 1.596042 0.511052 0.930096 16.931421 -1.359703 2.198046 -4.705387 -2.843345 3.737613 9.191479 6.325714 7.803656 -20.544953 77.187192 0.486477 9.789559 -3.145602 -3.762582 0.076843 2.862812 -1.439835 5.750280 -10.120558 -8.099169 -13.199813 -76.770515 -2.573543 -9.379117 2.224148 3.434237 5.579766 -3.821356 6.637663 6.121339 -0.464776 -0.584893 8.185610 -0.140126 0.398788 -7.423777 0.067843 0.000000 0.000000 0.000000 5.951445 6.697292 0.338100 0.072501 5.245369 0.319036 3.058654 -4.911415 -0.471691 0.000000 0.000000 0.000000
346.792773 106.734230 85.885024 -125.005027 -7.488466 0.361125 -0.256719 4.760860 1.513678 -0.129535 2.115093 0.674784 -0.129535 2.115093 0.674784 -0.099476 1.586179 0.506479 0.924422 16.915697 -1.349502 2.184443 -4.735084 -2.822909 3.700176 9.174732 6.293056 7.708685 -20.440855 77.207212 0.277257 9.904745 -3.234825 -3.762928 0.077703 2.895919 -1.432737 5.741333 -10.066481 -7.999344 -13.171102 -76.821971 -2.484518 -9.362325 2.259583 3.449854 5.583838 -3.831102 6.613019 6.076248 -0.467072 -0.619650 8.209557 -0.216716 0.361151 -7.420617 0.110567 0.000000 0.000000 0.000000 5.877544 6.633514 0.286880 0.087160 5.260138 0.378108 3.039746 -4.902691 -0.506508 0.000000 0.000000 0.000000
346.810555 106.731575 85.907124 -124.921095 -7.449368 0.372050 -0.268035 4.731364 1.499630 -0.134322 2.101956 0.668652 -0.134322 2.101956 0.668652 -0.103031 1.576322 0.501895 0.918729 16.899967 -1.339320 2.170803 -4.764787 -2.802497 3.662751 9.158011 6.260381 7.613924 -20.336636 77.227033 0.067908 10.019695 -3.324775 -3.763214 0.078736 2.929021 -1.425672 5.732323 -10.012415 -7.899560 -13.142205 -76.873279 -2.395621 -9.345567 2.295291 3.465491 5.587951 -3.840803 6.588392 6.031149 -0.469398 -0.654434 8.233531 -0.293304 0.323530 -7.417415 0.153298 0.000000 0.000000 0.000000 5.803699 6.569714 0.235701 0.101815 5.274875 0.437193 3.020837 -4.893976 -0.541328 0.000000 0.000000 0.000000
346.826522 106.729324 85.929455 -124.846069 -7.419822 0.381833 -0.277295 4.706975 1.487719 -0.138236 2.091094 0.663449 -0.138236 2.091094 0.663449 -0.105936 1.568173 0.498005 0.912259 16.889812 -1.332597 2.156764 -4.784053 -2.788059 3.627908 9.140281 6.230803 7.518889 -20.235754 77.248721 -0.181776 10.128038 -3.442472 -3.766974 0.083519 2.960203 -1.419990 5.723293 -9.965912 -7.810607 -13.120090 -76.921288 -2.300038 -9.341028 2.335262 3.482559 5.592882 -3.852396 6.595136 5.992208 -0.470109 -0.702977 8.258938 -0.352861 0.281891 -7.416442 0.185440 0.000000 0.000000 0.000000 5.737128 6.515319 0.188848 0.113775 5.291464 0.488915 3.006150 -4.887955 -0.569260 0.000000 0.000000 0.000000
346.837971 106.727664 85.954256 -124.781636 -7.406997 0.391501 -0.284256 4.691391 1.478494 -0.141184 2.084151 0.659417 -0.141185 2.084151 0.659417 -0.108127 1.562963 0.494990 0.904576 16.887984 -1.330965 2.142017 -4.787742 -2.782397 3.595666 9.120157 6.203328 7.420642 -20.137863 77.273473 -0.488348 10.240221 -3.599479 -3.775326 0.092442 2.988233 -1.417149 5.713604 -9.931616 -7.733999 -13.107924 -76.965917 -2.194205 -9.354771 2.382200 3.502320 5.599161 -3.867545 6.672110 5.967847 -0.473443 -0.791633 8.280994 -0.375743 0.231938 -7.416875 0.200677 -0.000000 -0.000000 -0.000000 5.680057 6.477609 0.144785 0.120852 5.310594 0.530407 2.997295 -4.885828 -0.585971 0.000000 0.000000 0.000000
346.847605 106.726408 85.979290 -124.726108 -7.403714 0.399975 -0.289163 4.680904 1.471426 -0.143259 2.079479 0.656324 -0.143259 2.079479 0.656324 -0.109667 1.559457 0.492677 0.896134 16.891739 -1.332773 2.126909 -4.780985 -2.782688 3.566006 9.099011 6.178953 7.322080 -20.043330 77.300081 -0.835436 10.344909 -3.784610 -3.787137 0.105171 3.014268 -1.415671 5.703937 -9.904881 -7.668172 -13.102633 -77.007352 -2.081698 -9.380786 2.433305 3.523526 5.606283 -3.884564 6.780436 5.949687 -0.475187 -0.894020 8.304466 -0.381604 0.177948 -7.419565 0.205322 -0.000000 0.000000 0.000000 5.630229 6.449318 0.105008 0.125244 5.331602 0.564530 2.992666 -4.886386 -0.595792 -0.000000 -0.000000 0.000000
346.861715 106.725387 85.998077 -124.683324 -7.397979 0.402895 -0.290698 4.669500 1.467066 -0.143861 2.074408 0.654399 -0.143861 2.074408 0.654399 -0.110106 1.555654 0.491234 0.887518 16.898419 -1.336529 2.112074 -4.768744 -2.786447 3.541432 9.079939 6.163784 7.231427 -19.956715 77.327051 -1.213687 10.402778 -3.990295 -3.802561 0.124229 3.039899 -1.412487 5.696314 -9.879320 -7.619293 -13.101881 -77.042884 -1.966380 -9.413152 2.484256 3.543812 5.613465 -3.900386 6.834842 5.918608 -0.461086 -0.944781 8.345094 -0.412345 0.128734 -7.429276 0.207723 0.000000 -0.000000 -0.000000 5.588113 6.418062 0.078350 0.130835 5.354351 0.592506 2.991667 -4.888709 -0.604824 -0.000000 -0.000000 0.000000
346.883963 106.724928 86.005398 -124.651501 -7.383813 0.394832 -0.288802 4.653637 1.466762 -0.142966 2.067364 0.654239 -0.142966 2.067365 0.654239 -0.109427 1.550373 0.491110 0.877961 16.908496 -1.342240 2.096084 -4.750166 -2.793408 3.522402 9.064654 6.162521 7.148846 -19.880062 77.355302 -1.628932 10.391977 -4.217659 -3.821457 0.153754 3.065045 -1.406206 5.693620 -9.852606 -7.597714 -13.106655 -77.068234 -1.842615 -9.453378 2.535377 3.561676 5.619943 -3.913608 6.808269 5.870482 -0.414327 -0.920906 8.397282 -0.494962 0.077773 -7.439526 0.217076 -0.000000 -0.000000 0.000000 5.553037 6.376925 0.073678 0.136406 5.379586 0.613568 2.994365 -4.893158 -0.615106 0.000000 0.000000 0.000000
